<?xml version="1.0" standalone="no"?>
<!DOCTYPE svg PUBLIC "-//W3C//DTD SVG 20010904//EN"
 "http://www.w3.org/TR/2001/REC-SVG-20010904/DTD/svg10.dtd">
<svg version="1.0" xmlns="http://www.w3.org/2000/svg"
 width="228.000000pt" height="228.000000pt" viewBox="0 0 228.000000 228.000000"
 preserveAspectRatio="xMidYMid meet">
<metadata>
Created by potrace 1.14, written by Peter Selinger 2001-2017
</metadata>
<g transform="translate(0.000000,228.000000) scale(0.100000,-0.100000)"
fill="#000000" stroke="none">
<path d="M1535 1610 c-19 -38 -36 -70 -38 -70 -1 0 -63 24 -137 54 l-135 55
-22 -50 c-13 -27 -25 -49 -28 -49 -2 0 -33 17 -67 38 -114 70 -101 71 -143 -9
l-37 -70 27 -25 26 -24 -3 -262 c-3 -257 -4 -264 -27 -301 -22 -36 -24 -37
-42 -21 -17 16 -19 39 -21 308 l-3 291 -80 42 c-44 23 -86 42 -92 43 -7 0 -29
-31 -48 -70 l-35 -69 25 -25 25 -25 0 -246 c0 -135 -2 -245 -5 -245 -2 0 -23
7 -45 16 l-40 16 0 284 0 283 -86 41 c-48 22 -91 40 -96 40 -9 0 -68 -117 -68
-136 0 -6 11 -20 25 -32 l25 -22 0 -290 c0 -265 1 -291 17 -300 10 -6 60 -31
112 -55 l95 -44 28 49 c16 28 30 50 33 50 2 0 41 -22 87 -50 l83 -50 42 85
c42 82 44 84 68 73 25 -11 25 -13 25 -126 l0 -114 25 6 c14 4 60 23 102 44 77
37 78 37 81 79 3 47 -14 36 177 106 l90 33 5 299 c4 231 8 306 19 328 17 32
31 34 54 9 15 -16 17 -57 19 -317 l3 -298 98 -33 97 -33 0 340 c0 186 3 339 8
339 4 0 25 -12 47 -25 22 -14 43 -25 46 -25 12 0 90 132 86 144 -4 11 -132 86
-146 86 -4 0 -15 -16 -24 -35 -9 -19 -21 -35 -27 -35 -6 0 -42 16 -80 35 -38
19 -74 35 -80 35 -5 0 -26 -31 -45 -70z m-267 -420 l2 -250 -45 0 -45 0 0 276
0 275 43 -25 42 -26 3 -250z"/>
</g>
</svg>
